<svg xmlns="http://www.w3.org/2000/svg" width="128" height="128" class="icon" viewBox="0 0 1024 1024"><path fill="#70C4FF" d="M41.54 512a470.46 470.46 0 1 0 940.92 0 470.46 470.46 0 1 0-940.92 0"/><path fill="#A3D9FF" d="M505.77 57.146s-47.073 265.85 55.388 285.237 146.774-8.308 199.388 44.31 170.842 34.394 174.465-19.387c0 0-72.005-268.621-429.242-310.16m-291.207 807.65s108.666 16.53 208.472-25.106C528.74 795.597 624.501 689.88 570.67 564.132c-84.661-197.744-166.527-93.115-137.798-248.347 28.724-155.232-61.528-217.1-124.48-217.1s-337.673 410.465-93.83 766.112" opacity=".26"/><path fill="#A3D9FF" d="M191.74 856.285s94.282 15.632 180.88-23.74C464.333 790.854 547.415 690.89 500.71 572c-73.458-186.972-144.486-88.038-119.563-234.813s-53.386-205.274-108.002-205.274c-54.62 0-292.972 388.105-81.404 724.373" opacity=".26"/><path fill="#6E6E96" d="M512 62.309c247.96 0 449.691 201.727 449.691 449.691S759.968 961.691 512 961.691c-247.96 0-449.691-201.73-449.691-449.691S264.039 62.309 512 62.309M20.77 512c0 270.865 220.365 491.23 491.23 491.23S1003.23 782.865 1003.23 512 782.865 20.77 512 20.77 20.77 241.135 20.77 512"/><path fill="#9EE3C3" d="M209.736 151.518c149.416 22.926 95.586 150.56 137.715 299.793 27.337 96.812 68.61 82.667 105.58 154.468 56.464 74.663-216.004 324.006-362.093 115.703-144.806-357.536 118.798-569.964 118.798-569.964"/><path fill="#6E6E96" d="M206.587 172.047c83.955 12.877 91.29 55.99 99.864 152.283 3.548 39.836 7.569 84.985 21.023 132.622 17.439 61.744 41.07 83.465 63.925 104.459 15.075 13.862 29.314 26.942 43.184 53.868a20 20 0 0 0 1.903 3.02c5.263 6.962 4.307 20.05-2.617 35.915-23.449 53.702-104.234 119.018-182.673 126.894-57.69 5.786-105.88-18.286-143.236-71.56a21.2 21.2 0 0 1 2.248 4.13C-27.237 374.363 220.253 169.716 222.77 167.69a20.78 20.78 0 0 1-16.184 4.357M73.94 733.404c58.067 82.804 130.695 94.115 181.393 89.04 97.156-9.754 188.073-86.282 216.594-151.606 13.301-30.465 12.474-58.022-2.326-77.591a21 21 0 0 1 1.902 3.024c-17.247-33.493-35.71-50.458-52.007-65.429-20.292-18.65-37.817-34.756-52.048-85.168-12.396-43.902-16.234-86.995-19.628-125.024-7.846-88.093-15.257-171.296-134.931-189.656a20.78 20.78 0 0 0-16.184 4.357c-2.837 2.285-70.069 57.167-119.33 157.953-45.469 93.027-83.36 244.18-5.678 435.971a21 21 0 0 0 2.243 4.13"/><path fill="#9EE3C3" d="M552.015 43.25s-73.703 251.226 88.258 251.226c164.579 0 195.434 148.984 298.36 19.05C828.873 49.12 552.015 43.25 552.015 43.25"/><path fill="#6E6E96" d="M532.084 37.406c-1.873 6.393-45.26 157.405 12.155 234.082 21.741 29.036 54.055 43.757 96.034 43.757 62.421 0 103.437 23.021 139.622 43.334 53.236 29.87 103.528 58.093 175.017-32.151a20.76 20.76 0 0 0 2.904-20.857C898.394 162.443 791.418 93.069 712.136 60.07c-85.57-35.616-156.703-37.51-159.681-37.577a20.76 20.76 0 0 0-20.37 14.913m390.27 263.222c-49.494 62.483-70.758 50.549-122.126 21.72-38.615-21.67-86.671-48.642-159.955-48.642-28.583 0-49.12-8.869-62.782-27.117-37.419-49.971-16.69-159.498-5.546-197.49A20.774 20.774 0 0 1 551.58 64.02c10.737.258 264.816 9.197 367.88 257.465a20.75 20.75 0 0 1 2.895-20.857"/><path fill="#9EE3C3" d="M752.828 916.197s-106.012-169.5 0-240.117C858.853 605.463 982.46 609.617 982.46 512c0 267.928-229.633 404.197-229.633 404.197"/><path fill="#6E6E96" d="m770.436 905.181.009.017c-.952-1.525-94.041-153.263-6.107-211.834 35.462-23.623 74.202-38.918 108.384-52.414 67.115-26.506 130.508-51.542 130.508-128.95a20.77 20.77 0 1 0-41.539 0c0 253.173-217.27 385.031-219.464 386.336a20.77 20.77 0 0 1 28.21 6.845M961.691 512c0 46.964-35.74 63.26-104.226 90.315-36.102 14.256-77.022 30.41-116.152 56.48-121.419 80.877-10.862 260.796-6.098 268.414a20.76 20.76 0 0 0 28.21 6.842c2.467-1.466 61.062-36.63 120.04-106.033 78.342-92.196 119.757-201.474 119.757-316.018a20.77 20.77 0 1 0-41.53 0"/><path fill="#6E6E96" d="M507.846 37.385c-259.828 0-470.46 210.633-470.46 470.461s210.632 470.46 470.46 470.46 470.46-210.632 470.46-470.46-210.632-470.46-470.46-470.46m339.84 523.922c-16.607 57.985-116.832 40.073-156.644 83.19-32.392 35.085-1.05 134.305-44.538 155.287-50.05 24.142-106.178 37.663-165.467 37.663-65.666 0 80.062-119.778 26.12-149-19.192-10.402-29.04 46.889-38.08-80.358-3.318-46.728-70.55-68.395-114.573-175.375-11.058-26.872-31.715-216.066-39.815-205.266-49.847 66.463-8.308 274.761 38.768 383.544 29.755 68.756-171.735 188.26-171.735 81.43 0-211.585-95.499-86.967-82.028-236.317C118.615 246.357 270.43 74.77 481.037 74.77c88.848 0 179.192 25.555 243.702 76.681 30.506 24.168 55.235 54.063 71.302 89.667 28.197 62.487-197.224 22.327-176.729 32.583 41.801 20.92 254.96 98.664 232.412 92.537-294.151-79.934-11.236 67.979 10.647 89.87 36.496 36.492-5.118 71.784-14.684 105.198" opacity=".2"/><path fill="#9EE3C3" d="M669.16 558.387s-47.081 38.768-19.387 66.463 81.687-26.299 96.924-41.535 9.948-64.212-77.538-24.928"/><path fill="#6E6E96" d="M668.881 653.395h-.008c-13.035 0-24.716-4.793-33.784-13.861-10.322-10.323-15.428-23.163-14.755-37.128 1.504-31.096 32.135-57.183 35.62-60.053l2.156-1.774 2.542-1.142c24.745-11.112 46.034-16.745 63.273-16.745 32.234 0 43.566 18.967 46.947 27.121 6.672 16.113 2.771 35.923-9.491 48.186-23.777 23.785-59.24 55.396-92.5 55.396m11.536-77.275c-7.885 7.174-18.211 19.897-18.593 28.321-.067 1.496.083 3.17 2.633 5.724 1.101 1.097 2.131 1.691 4.416 1.691h.004c7.431 0 25.518-5.616 63.123-43.221.395-.54.74-2.277.49-2.92-.727-.553-12.52-6.826-52.073 10.405"/></svg>