<svg xmlns="http://www.w3.org/2000/svg" width="600" height="600" fill="#409EFF" class="icon" viewBox="0 200 600 200"><path d="M101 238h18l6 3 3 5v9l-3 5-7 3h-17l-6-3-4-8 1-7 5-5Z"/><path d="M150 238h101l13 3 9 6 6 7 4 11 1 5v26l-3 18-5 15-5 10-9 10-9 6-10 4-10 2H112l-6-4-2-4v-9l5-6 6-2 31-1 4-2 3-9-3-8-6-3-56-1-6-4-3-6 1-8 4-5 5-2 77-1 5-4 1-2v-10l-5-5-2-1-15-1-6-3-3-5v-9l3-5Zm67 25-2 7-10 63v3h26l10-5 6-9 4-10 3-13 1-8v-17l-3-6-6-4-4-1Zm92-21h36l21 62 3 6 16-26 15-24 11-18h36l-3 25-14 98h-25v-8l10-73-12 19-16 25-11 17-6 9-15 1-4-10-19-53-2-5v-3h-2l-1 15-9 64-1 2h-25l2-19 14-100Zm160 0h55l14 3 10 5 5 5 4 5 3 8 1 10-2 14-4 12-6 9-7 7-14 7-16 3h-30l-2 18-3 17h-25l1-13 15-107Zm23 23-2 4-5 38h25l10-2 6-3 6-7 2-7v-13l-5-6-8-3-8-1ZM52 287l8 1 5 4 2 4v7l-4 6-5 3h-7l-6-4-3-6 1-8 5-5Z"/></svg>